<svg width="72" height="83" viewBox="0 0 72 83" fill="none" xmlns="http://www.w3.org/2000/svg">
<path d="M21.7286 2.86934L20.5714 5.1875H5.14286C2.29821 5.1875 0 7.50566 0 10.375C0 13.2443 2.29821 15.5625 5.14286 15.5625H66.8571C69.7018 15.5625 72 13.2443 72 10.375C72 7.50566 69.7018 5.1875 66.8571 5.1875H51.4286L50.2714 2.86934C49.4036 1.10234 47.6196 0 45.675 0H26.325C24.3804 0 22.5964 1.10234 21.7286 2.86934ZM66.8571 20.75H5.14286L8.55 75.7051C8.80714 79.8064 12.1821 83 16.2482 83H55.7518C59.8179 83 63.1929 79.8064 63.45 75.7051L66.8571 20.75Z" fill="#BC4B51"/>
</svg>
