<svg width="512" height="342" viewBox="0 0 512 342" fill="none" xmlns="http://www.w3.org/2000/svg">
<path d="M177.5 350C168.7 353.8 158.5 352 151.5 345.4L7.49999 209.4C2.69999 204.9 -8.68108e-06 198.6 -8.39259e-06 192C-8.10409e-06 185.4 2.69999 179.1 7.49999 174.6L151.5 38.6C158.5 32 168.7 30.2 177.5 34C186.3 37.8 192 46.5 192 56L192 144L384 144C401.7 144 416 129.7 416 112L416 32C416 14.3 430.3 -3.57122e-06 448 -2.79753e-06L480 -1.39876e-06C497.7 -6.25073e-07 512 14.3 512 32L512 112C512 182.7 454.7 240 384 240L192 240L192 328C192 337.6 186.3 346.2 177.5 350Z" fill="#E1E1E1"/>
</svg>
